<svg xmlns="http://www.w3.org/2000/svg" fill="currentColor" viewBox="0 0 16 16"><g fill="currentColor"><path d="m10.2665 10.6665c-.1416-.0013-.28256-.0192-.42-.0533-.20738-.0552-.40185-.1507-.57229-.2811-.17045-.1304-.31352-.2932-.42104-.47889l-2.24667-3.92666c-.15857-.2793-.23127-.59915-.20902-.91955s.13847-.62714.33412-.88184.46205-.44606.76588-.55017c.30383-.1041.63162-.11631.94235-.03511.41786.11349.77452.38637.99334.76l2.24003 3.88667c.1076.18507.1776.38956.206.60175.0284.21218.0147.42789-.0404.63476-.0552.20686-.1506.40081-.2808.57072-.1302.16992-.2927.31242-.4782.41942-.2436.1555-.5244.243-.8133.2533zm-2.26667-5.84662c-.05168-.0008-.10254.01307-.14666.04-.03388.01866-.06363.04398-.08747.07444-.02383.03046-.04126.06543-.05122.1028-.00997.03737-.01227.07637-.00677.11465.00551.03829.0187.07506.03879.10811l2.25333 3.89333c.04057.06602.10507.1138.17997.13334.0358.0154.0744.02335.1134.02335.0389 0 .0775-.00795.1133-.02335.0675-.04029.1165-.10547.1365-.18153.0199-.07605.0092-.1569-.0298-.22514l-2.24003-3.91333c-.01817-.03424-.04376-.06398-.07491-.08705-.03114-.02307-.06705-.03888-.10509-.04629z"/><path d="m6.54701 13.94c-.28697.0002-.56887-.0756-.8171-.2196-.24822-.1441-.45392-.3512-.59623-.6004l-.88-1.5266c-.0797-.1524-.09745-.3297-.04955-.4948.04791-.1651.15777-.3054.30664-.3914.14887-.0861.32523-.1113.49224-.0704s.31176.1448.404.2899l.88 1.5267c.01926.0337.04497.0632.07567.087.03069.0238.06576.0413.10322.0515.03745.0102.07655.0129.11506.008s.07568-.0173.10939-.0365c.0337-.0193.06328-.045.08705-.0757s.04126-.0658.05148-.1032c.01021-.0375.01295-.0766.00805-.1151-.00489-.0385-.01732-.0757-.03658-.1094l-.71334-1.24c-.0797-.1523-.09745-.3296-.04954-.4947.04791-.1652.15777-.3054.30664-.3915.14886-.08603.32522-.11123.49223-.07032.16701.04092.31176.14472.40401.28992l.71333 1.24c.1422.2476.217.5282.21692.8137-.00007.2856-.07501.5662-.21734.8137-.14233.2476-.34708.4535-.59383.5972-.24674.1438-.52686.2203-.81242.222z"/><path d="m2.96667 12.26c-.36015.0032-.71119-.1131-.9981-.3308-.2869-.2177-.49345-.5245-.58724-.8722-.0938-.3477-.06954-.7168.06897-1.0492.1385-.33248.38343-.60957.69637-.78785l.56-.32c.07587-.04823.16073-.08062.24945-.09521.08872-.0146.17947-.01109.2668.0103s.16943.06023.24137.11417c.07193.05394.13221.12188.1772.19973.045.07784.07379.16398.08463.25324.01084.08925.00351.17978-.02154.26613s-.06731.16675-.12424.23634c-.05692.0696-.12734.12695-.20701.16865l-.55333.32c-.03952.0164-.07506.0411-.10424.0724s-.05132.0685-.06494.1091-.0184.0836-.01402.1262.01782.0837.03941.1206c.0216.037.05085.0689.08579.0936.03495.0247.07477.0417.11681.0497.04203.0081.0853.007.1269-.003.0416-.0101.08057-.0289.11429-.0553l.55333-.32c.15227-.0875.33291-.1113.50268-.0664.16976.045.31494.1551.40399.3064.04435.0757.07333.1594.08527.2463.01195.0869.00662.1754-.01568.2602-.0223.0849-.06112.1645-.11425.2343-.05312.0698-.11951.1284-.19534.1726l-.55334.32c-.24964.1431-.53221.2189-.81999.22z"/><path d="m4.20012 12.16c-.11747.0005-.23298-.0301-.33483-.0887-.10185-.0585-.18643-.1429-.24517-.2446l-1.33333-2.35337c-.0713-.12947-.09755-.27897-.07462-.42499s.09374-.28028.20129-.38167l4.31333-3.6c.07478-.06306.16252-.10888.257-.13423.09447-.02535.19337-.02959.28967-.01244.0953.01676.18582.05406.26525.10932.07944.05526.14589.12715.19475.21068l2.32004 4c.0469.08593.0754.18077.0834.27838.0081.09761-.0045.19582-.0368.28829-.0341.09069-.0875.17286-.15659.24083-.06908.0679-.15214.1199-.24339.1525l-5.27333 1.92c-.07266.0264-.14936.0399-.22667.04zm-.5-2.86667.79334 1.37337 4-1.4667-1.52667-2.66667z"/><path d="m11.6399 6.28017c-.1164-.0007-.2305-.03184-.3311-.09032-.1006-.05847-.1841-.14226-.2423-.24301-.0422-.077-.0688-.16158-.0783-.24888-.0094-.08731-.0015-.17562.0233-.25987.0247-.08425.0659-.16277.1211-.23106.0553-.06829.1234-.12499.2006-.16686l1.5933-.92c.0759-.04824.1608-.08063.2495-.09522s.1795-.01109.2668.01031c.0873.02139.1694.06022.2414.11417.0719.05394.1322.12188.1772.19972s.0738.16399.0846.25324c.0108.08926.0035.17979-.0215.26614-.0251.08635-.0673.16674-.1243.23634-.0569.06959-.1273.12696-.207.16863l-1.5933.92c-.1094.06231-.2342.09235-.36.08667z"/><path d="m10.7402 4.47346c-.1174-.00122-.2324-.03341-.3334-.09333-.1524-.08795-.264-.23263-.3102-.40249s-.0233-.3511.0636-.50418l.62-1.07333c.0417-.07967.099-.15009.1686-.20701.0696-.05693.15-.09919.2363-.12424.0864-.02505.1769-.03238.2662-.02154.0892.01085.1754.03963.2532.08463.0779.04499.1458.10527.1998.1772.0539.07194.0927.15404.1141.24137s.0249.17809.0103.26681-.047.17357-.0952.24945l-.6 1.07333c-.0598.10373-.1465.18943-.2509.24808-.1044.05866-.2227.08811-.3424.08525z"/><path d="m14.0004 8.00033h-1.24c-.1768 0-.3464-.07024-.4714-.19527-.125-.12502-.1952-.29459-.1952-.4714s.0702-.34638.1952-.47141c.125-.12502.2946-.19526.4714-.19526h1.24c.1768 0 .3464.07024.4714.19526.125.12503.1953.2946.1953.47141s-.0703.34638-.1953.4714c-.125.12503-.2946.19527-.4714.19527z"/></g></svg>