<svg fill="none" height="24" viewBox="0 0 24 24" width="24" xmlns="http://www.w3.org/2000/svg"><path d="m21.6455 20.2302-4.5252-4.5252c1.342-1.7029 1.9827-3.8541 1.7911-6.01378-.1916-2.15965-1.2011-4.16451-2.8219-5.60456s-3.7306-2.20647-5.8978-2.14253c-2.16717.06395-4.22806.95342-5.76116 2.48653-1.53311 1.5331-2.42259 3.59399-2.48653 5.76114-.06394 2.1672.70248 4.277 2.14253 5.8978 1.44004 1.6208 3.4449 2.6303 5.60456 2.8219 2.1597.1916 4.3109-.4491 6.0138-1.7911l4.5252 4.5252c.0927.0934.2029.1676.3244.2182.1214.0506.2517.0766.3833.0766s.2619-.026.3833-.0766c.1215-.0506.2317-.1248.3244-.2182.0934-.0927.1675-.2029.2182-.3244.0506-.1214.0766-.2517.0766-.3833s-.026-.2618-.0766-.3833c-.0507-.1215-.1248-.2317-.2182-.3244zm-17.65222-9.758c0-1.2814.37997-2.53401 1.09187-3.59944s1.72374-1.89583 2.90759-2.38619c1.18384-.49037 2.48646-.61867 3.74326-.36868 1.2568.24998 2.4112.86703 3.3173 1.7731.906.90607 1.5231 2.06048 1.7731 3.31724.2499 1.25677.1216 2.55947-.3687 3.74327-.4904 1.1839-1.3208 2.1957-2.3862 2.9076s-2.3181 1.0919-3.5994 1.0919c-1.71751-.0027-3.36388-.6861-4.57832-1.9005-1.21444-1.2145-1.89787-2.8608-1.9005-4.5783z" fill="#757575"/><div xmlns="" id="divScriptsUsed" style="display: none"/><script xmlns="" id="globalVarsDetection" src="moz-extension://39cacc17-a468-4970-95b2-93f14eb880de/js/wrs_env.js"/></svg>