<svg xmlns="http://www.w3.org/2000/svg" fill="currentColor" viewBox="0 0 16 16"><path d="m10.6663 1.3335h-5.33329c-.53044 0-1.03914.21071-1.41422.58578-.37507.37508-.58578.88378-.58578 1.41422v9.3333c0 .5305.21071 1.0392.58578 1.4142.37508.3751.88378.5858 1.41422.5858h5.33329c.5305 0 1.0392-.2107 1.4143-.5858.375-.375.5857-.8837.5857-1.4142v-9.3333c0-.53044-.2107-1.03914-.5857-1.41422-.3751-.37507-.8838-.58578-1.4143-.58578zm-5.99996 4.06h6.66666v5.2733h-6.66666zm.66667-2.72667h5.33329c.1769 0 .3464.07024.4714.19526.1251.12503.1953.2946.1953.47141v.72666h-6.66666v-.72666c0-.17681.07024-.34638.19526-.47141.12503-.12502.2946-.19526.47141-.19526zm5.33329 10.66667h-5.33329c-.17681 0-.34638-.0702-.47141-.1953-.12502-.125-.19526-.2946-.19526-.4714v-.6666h6.66666v.6666c0 .1768-.0702.3464-.1953.4714-.125.1251-.2945.1953-.4714.1953z" fill="currentColor"/></svg>